# File produced by Open Asset Import Library (http://www.assimp.sf.net)
# (assimp v3.1.206520482)

mtllib Suelo.mtl

# 8 vertex positions
v 27.2419 0 60.2916
v -27.4402 0 60.2916
v -27.4402 0 -60.0477
v 27.2419 0 -60.0477
v -27.4402 8.86829 -60.0477
v -27.4402 8.86829 60.2916
v 27.2419 8.86829 60.2916
v 27.2419 8.86829 -60.0477

# 24 UV coordinates
vt 0.0005 0.49916 0
vt 0.495161 0.49916 0
vt 0.495161 0.993822 0
vt 0.0005 0.993822 0
vt 0.0005 0.495161 0
vt 0.0005 0.0005 0
vt 0.495161 0.0005 0
vt 0.495161 0.495161 0
vt 0.75511 0.845048 0
vt 0.75511 0.600658 0
vt 0.9995 0.600658 0
vt 0.9995 0.845048 0
vt 0.49916 0.290593 0
vt 0.49916 0.0005 0
vt 0.789253 0.0005 0
vt 0.789253 0.290593 0
vt 0.507986 0.836222 0
vt 0.507986 0.591832 0
vt 0.752376 0.591832 0
vt 0.752376 0.836222 0
vt 0.49916 0.590671 0
vt 0.49916 0.300579 0
vt 0.789253 0.300579 0
vt 0.789253 0.590671 0

# 6 vertex normals
vn 0 -1 -6.12323e-17
vn 0 1 6.12323e-17
vn 0 -6.12323e-17 1
vn 1 0 0
vn 0 6.12323e-17 -1
vn -1 0 0

# Mesh 'Box001_Box001' with 12 faces
g Box001_Box001
usemtl DefaultMaterial
f 1/1/1 2/2/1 3/3/1
f 3/3/1 4/4/1 1/1/1
f 5/5/2 6/6/2 7/7/2
f 7/7/2 8/8/2 5/5/2
f 6/9/3 2/10/3 1/11/3
f 1/11/3 7/12/3 6/9/3
f 7/13/4 1/14/4 4/15/4
f 4/15/4 8/16/4 7/13/4
f 8/17/5 4/18/5 3/19/5
f 3/19/5 5/20/5 8/17/5
f 5/21/6 3/22/6 2/23/6
f 2/23/6 6/24/6 5/21/6

